<svg width="530" height="530" viewBox="0 0 530 530" fill="none" xmlns="http://www.w3.org/2000/svg">
<g clip-path="url(#clip0_103_341)">
<path d="M529.134 0H0V529.134H529.134V0Z" fill="#F3FAFF"/>
<path d="M155.359 167.886C145.809 167.886 137.953 175.743 137.953 185.294V251.263C137.953 260.813 145.809 268.661 155.359 268.661H221.328C230.879 268.661 238.735 260.813 238.735 251.263V185.294C238.735 175.743 230.879 167.886 221.328 167.886H155.359ZM155.359 178.539H221.328C225.163 178.539 228.083 181.459 228.083 185.294V251.263C228.083 255.098 225.163 258.017 221.328 258.017H155.359C151.524 258.017 148.605 255.098 148.605 251.263V185.294C148.605 181.459 151.524 178.539 155.359 178.539V178.539ZM269.48 282.009C259.93 282.009 252.082 289.863 252.082 299.414V365.383C252.082 374.933 259.93 382.789 269.48 382.789H335.45C345 382.789 352.856 374.933 352.856 365.383V299.414C352.856 289.863 345 282.009 335.45 282.009H269.48ZM269.48 292.661H335.45C339.285 292.661 342.204 295.579 342.204 299.414V365.383C342.204 369.218 339.285 372.137 335.45 372.137H269.48C265.645 372.137 262.726 369.218 262.726 365.383V299.414C262.726 295.579 265.645 292.661 269.48 292.661V292.661Z" fill="url(#paint0_linear_103_341)"/>
<path d="M144.534 292.66C140.888 292.66 137.953 295.595 137.953 299.241V376.208C137.953 379.854 140.888 382.789 144.534 382.789H221.5C225.147 382.789 228.082 379.854 228.082 376.208V299.241C228.082 295.595 225.147 292.66 221.5 292.66H144.534Z" fill="url(#paint1_linear_103_341)"/>
<path d="M322.015 141.006C286.764 141.005 258.187 169.581 258.186 204.832C258.186 240.083 286.764 268.661 322.015 268.661C357.266 268.66 385.842 240.083 385.842 204.832C385.841 169.581 357.266 141.006 322.015 141.006ZM322.014 179.61C323.724 179.61 325.101 180.986 325.101 182.695V201.747H344.152C345.862 201.747 347.237 203.123 347.237 204.833C347.237 206.543 345.862 207.92 344.152 207.92H325.101V226.97C325.101 228.68 323.724 230.056 322.014 230.056C320.304 230.056 318.929 228.68 318.929 226.97V207.92H299.877C298.168 207.92 296.791 206.543 296.791 204.833C296.791 203.123 298.168 201.747 299.877 201.747H318.929V182.695C318.929 180.986 320.304 179.61 322.014 179.61V179.61Z" fill="url(#paint2_radial_103_341)"/>
<path d="M160.698 173.225C151.148 173.225 143.292 181.082 143.292 190.633V256.602C143.292 266.152 151.148 274 160.698 274H226.667C236.218 274 244.074 266.152 244.074 256.602V190.633C244.074 181.082 236.218 173.225 226.667 173.225H160.698ZM160.698 183.878H226.667C230.502 183.878 233.422 186.798 233.422 190.633V256.602C233.422 260.437 230.502 263.356 226.667 263.356H160.698C156.863 263.356 153.944 260.437 153.944 256.602V190.633C153.944 186.798 156.863 183.878 160.698 183.878V183.878ZM274.819 287.348C265.269 287.348 257.421 295.202 257.421 304.753V370.722C257.421 380.272 265.269 388.128 274.819 388.128H340.789C350.339 388.128 358.195 380.272 358.195 370.722V304.753C358.195 295.202 350.339 287.348 340.789 287.348H274.819ZM274.819 298H340.789C344.624 298 347.543 300.918 347.543 304.753V370.722C347.543 374.557 344.624 377.476 340.789 377.476H274.819C270.984 377.476 268.065 374.557 268.065 370.722V304.753C268.065 300.918 270.984 298 274.819 298V298Z" fill="#0080D4" fill-opacity="0.237435"/>
<path d="M149.873 297.999C146.227 297.999 143.292 300.934 143.292 304.58V381.547C143.292 385.193 146.227 388.128 149.873 388.128H226.839C230.485 388.128 233.42 385.193 233.42 381.547V304.58C233.42 300.934 230.485 297.999 226.839 297.999H149.873Z" fill="#0080D4" fill-opacity="0.237435"/>
<path d="M327.354 146.344C292.103 146.344 263.526 174.92 263.526 210.171C263.525 245.423 292.102 274 327.354 274C362.605 273.999 391.181 245.422 391.181 210.171C391.181 174.921 362.604 146.345 327.354 146.344Z" fill="#0080D4" fill-opacity="0.237435"/>
</g>
<defs>
<linearGradient id="paint0_linear_103_341" x1="37.0502" y1="242.911" x2="359.066" y2="242.911" gradientUnits="userSpaceOnUse">
<stop stop-color="#0080D4"/>
<stop offset="1" stop-color="#004BAF"/>
</linearGradient>
<linearGradient id="paint1_linear_103_341" x1="63.8768" y1="86.1972" x2="365.608" y2="391.094" gradientUnits="userSpaceOnUse">
<stop stop-color="#0080D4"/>
<stop offset="1" stop-color="#004BAF"/>
</linearGradient>
<radialGradient id="paint2_radial_103_341" cx="0" cy="0" r="1" gradientUnits="userSpaceOnUse" gradientTransform="translate(312.852 137.265) scale(95.641)">
<stop stop-color="#0068AD"/>
<stop offset="1" stop-color="#0080D4"/>
</radialGradient>
<clipPath id="clip0_103_341">
<rect width="529.134" height="529.134" rx="264.567" fill="white"/>
</clipPath>
</defs>
</svg>
